<svg xmlns="http://www.w3.org/2000/svg" xmlns:xlink="http://www.w3.org/1999/xlink" width="425" zoomAndPan="magnify" viewBox="0 0 318.75 60" height="80" preserveAspectRatio="xMidYMid meet" version="1.0"><defs><clipPath id="3f79c05966"><path d="M 0 0.0234375 L 318.5 0.0234375 L 318.5 59.976562 L 0 59.976562 Z M 0 0.0234375 " clip-rule="nonzero"/></clipPath><clipPath id="8204db2e63"><path d="M 141.28125 18.011719 L 177.253906 18.011719 L 177.253906 41.992188 L 141.28125 41.992188 Z M 141.28125 18.011719 " clip-rule="nonzero"/></clipPath></defs><g clip-path="url(#3f79c05966)"><path fill="#ffffff" d="M 0 0.0234375 L 318.5 0.0234375 L 318.5 59.976562 L 0 59.976562 Z M 0 0.0234375 " fill-opacity="1" fill-rule="nonzero"/><path fill="#ffffff" d="M 0 0.0234375 L 318.5 0.0234375 L 318.5 59.976562 L 0 59.976562 Z M 0 0.0234375 " fill-opacity="1" fill-rule="nonzero"/></g><g clip-path="url(#8204db2e63)"><path fill="#000000" d="M 141.363281 33.640625 L 141.363281 40.796875 C 141.363281 41.457031 141.898438 41.992188 142.554688 41.992188 L 175.980469 41.992188 C 176.636719 41.992188 177.171875 41.457031 177.171875 40.796875 L 177.171875 33.640625 C 177.171875 32.980469 176.636719 32.445312 175.980469 32.445312 C 175.320312 32.445312 174.785156 32.980469 174.785156 33.640625 L 174.785156 39.605469 C 174.785156 39.605469 143.75 39.605469 143.75 39.605469 C 143.75 39.605469 143.75 33.640625 143.75 33.640625 C 143.75 32.980469 143.214844 32.445312 142.554688 32.445312 C 141.898438 32.445312 141.363281 32.980469 141.363281 33.640625 Z M 158.074219 22.046875 L 158.074219 33.640625 C 158.074219 34.296875 158.609375 34.832031 159.265625 34.832031 C 159.925781 34.832031 160.460938 34.296875 160.460938 33.640625 L 160.460938 22.046875 L 162.039062 23.503906 C 162.523438 23.949219 163.277344 23.917969 163.726562 23.4375 C 164.171875 22.953125 164.140625 22.195312 163.65625 21.75 L 160.078125 18.445312 C 159.621094 18.023438 158.914062 18.023438 158.457031 18.445312 L 154.875 21.75 C 154.390625 22.195312 154.363281 22.953125 154.808594 23.4375 C 155.257812 23.917969 156.011719 23.949219 156.496094 23.503906 Z M 158.074219 22.046875 " fill-opacity="1" fill-rule="evenodd"/></g></svg>