<svg xmlns="http://www.w3.org/2000/svg" xmlns:xlink="http://www.w3.org/1999/xlink" width="512" zoomAndPan="magnify" viewBox="0 0 384 383.999986" height="512" preserveAspectRatio="xMidYMid meet" version="1.0"><defs><clipPath id="1093f17da6"><path d="M 115.199219 141 L 268.949219 141 L 268.949219 243.503906 L 115.199219 243.503906 Z M 115.199219 141 " clip-rule="nonzero"/></clipPath></defs><rect x="-38.4" width="460.8" fill="#ffffff" y="-38.399999" height="460.799983" fill-opacity="1"/><rect x="-38.4" width="460.8" fill="#000000" y="-38.399999" height="460.799983" fill-opacity="1"/><g clip-path="url(#1093f17da6)"><path fill="#ffffff" d="M 115.511719 207.550781 L 115.511719 238.148438 C 115.511719 240.960938 117.796875 243.246094 120.609375 243.246094 L 263.386719 243.246094 C 266.199219 243.246094 268.484375 240.960938 268.484375 238.148438 L 268.484375 207.550781 C 268.484375 204.738281 266.199219 202.453125 263.386719 202.453125 C 260.570312 202.453125 258.289062 204.738281 258.289062 207.550781 L 258.289062 233.046875 C 258.289062 233.046875 125.710938 233.046875 125.710938 233.046875 C 125.710938 233.046875 125.710938 207.550781 125.710938 207.550781 C 125.710938 204.738281 123.425781 202.453125 120.609375 202.453125 C 117.796875 202.453125 115.511719 204.738281 115.511719 207.550781 Z M 186.898438 158.007812 L 186.898438 207.550781 C 186.898438 210.367188 189.183594 212.652344 192 212.652344 C 194.8125 212.652344 197.097656 210.367188 197.097656 207.550781 L 197.097656 158.007812 L 203.839844 164.230469 C 205.902344 166.136719 209.132812 166.007812 211.042969 163.945312 C 212.949219 161.875 212.824219 158.644531 210.753906 156.734375 L 195.457031 142.613281 C 193.503906 140.816406 190.496094 140.816406 188.542969 142.613281 L 173.246094 156.734375 C 171.175781 158.644531 171.046875 161.875 172.953125 163.945312 C 174.867188 166.007812 178.09375 166.136719 180.160156 164.230469 Z M 186.898438 158.007812 " fill-opacity="1" fill-rule="evenodd"/></g></svg>