<svg xmlns="http://www.w3.org/2000/svg" xmlns:xlink="http://www.w3.org/1999/xlink" width="512" zoomAndPan="magnify" viewBox="0 0 384 383.999986" height="512" preserveAspectRatio="xMidYMid meet" version="1.0"><defs><clipPath id="270887c649"><path d="M 115.199219 141 L 268.949219 141 L 268.949219 243.503906 L 115.199219 243.503906 Z M 115.199219 141 " clip-rule="nonzero"/></clipPath></defs><rect x="-38.4" width="460.8" fill="#ffffff" y="-38.399999" height="460.799983" fill-opacity="1"/><rect x="-38.4" width="460.8" fill="#ffffff" y="-38.399999" height="460.799983" fill-opacity="1"/><g clip-path="url(#270887c649)"><path fill="#000000" d="M 115.511719 207.71875 L 115.511719 238.390625 C 115.511719 241.214844 117.800781 243.503906 120.617188 243.503906 L 263.535156 243.503906 C 266.351562 243.503906 268.636719 241.214844 268.636719 238.390625 L 268.636719 207.71875 C 268.636719 204.898438 266.351562 202.609375 263.535156 202.609375 C 260.714844 202.609375 258.429688 204.898438 258.429688 207.71875 L 258.429688 233.28125 C 258.429688 233.28125 125.722656 233.28125 125.722656 233.28125 C 125.722656 233.28125 125.722656 207.71875 125.722656 207.71875 C 125.722656 204.898438 123.433594 202.609375 120.617188 202.609375 C 117.800781 202.609375 115.511719 204.898438 115.511719 207.71875 Z M 186.972656 158.050781 L 186.972656 207.71875 C 186.972656 210.542969 189.257812 212.832031 192.074219 212.832031 C 194.890625 212.832031 197.179688 210.542969 197.179688 207.71875 L 197.179688 158.050781 L 203.925781 164.289062 C 205.992188 166.199219 209.226562 166.074219 211.140625 164.003906 C 213.046875 161.925781 212.921875 158.691406 210.847656 156.773438 L 195.535156 142.621094 C 193.582031 140.816406 190.570312 140.816406 188.613281 142.621094 L 173.300781 156.773438 C 171.230469 158.691406 171.101562 161.925781 173.011719 164.003906 C 174.925781 166.074219 178.15625 166.199219 180.222656 164.289062 Z M 186.972656 158.050781 " fill-opacity="1" fill-rule="evenodd"/></g></svg>