<svg xmlns="http://www.w3.org/2000/svg" xmlns:xlink="http://www.w3.org/1999/xlink" width="215" zoomAndPan="magnify" viewBox="0 0 161.25 74.999997" height="100" preserveAspectRatio="xMidYMid meet" version="1.0"><defs><clipPath id="17287c4b52"><path d="M 0 0.171875 L 160.503906 0.171875 L 160.503906 74.824219 L 0 74.824219 Z M 0 0.171875 " clip-rule="nonzero"/></clipPath><clipPath id="f8a3791bad"><path d="M 66.113281 28.066406 L 94.480469 28.066406 L 94.480469 46.730469 L 66.113281 46.730469 Z M 66.113281 28.066406 " clip-rule="nonzero"/></clipPath></defs><g clip-path="url(#17287c4b52)"><path fill="#ffffff" d="M 0 0.171875 L 160.503906 0.171875 L 160.503906 74.828125 L 0 74.828125 Z M 0 0.171875 " fill-opacity="1" fill-rule="nonzero"/><path fill="#ffffff" d="M 0 0.171875 L 160.503906 0.171875 L 160.503906 74.828125 L 0 74.828125 Z M 0 0.171875 " fill-opacity="1" fill-rule="nonzero"/></g><g clip-path="url(#f8a3791bad)"><path fill="#000000" d="M 66.175781 40.230469 L 66.175781 45.800781 C 66.175781 46.3125 66.597656 46.730469 67.117188 46.730469 L 93.476562 46.730469 C 94 46.730469 94.417969 46.3125 94.417969 45.800781 L 94.417969 40.230469 C 94.417969 39.71875 94 39.300781 93.476562 39.300781 C 92.957031 39.300781 92.535156 39.71875 92.535156 40.230469 L 92.535156 44.871094 C 92.535156 44.871094 68.058594 44.871094 68.058594 44.871094 C 68.058594 44.871094 68.058594 40.230469 68.058594 40.230469 C 68.058594 39.71875 67.636719 39.300781 67.117188 39.300781 C 66.597656 39.300781 66.175781 39.71875 66.175781 40.230469 Z M 79.355469 31.207031 L 79.355469 40.230469 C 79.355469 40.742188 79.777344 41.15625 80.296875 41.15625 C 80.816406 41.15625 81.238281 40.742188 81.238281 40.230469 L 81.238281 31.207031 L 82.484375 32.339844 C 82.863281 32.6875 83.460938 32.664062 83.8125 32.289062 C 84.167969 31.910156 84.144531 31.324219 83.761719 30.976562 L 80.9375 28.40625 C 80.574219 28.078125 80.019531 28.078125 79.660156 28.40625 L 76.835938 30.976562 C 76.453125 31.324219 76.429688 31.910156 76.78125 32.289062 C 77.132812 32.664062 77.730469 32.6875 78.113281 32.339844 Z M 79.355469 31.207031 " fill-opacity="1" fill-rule="evenodd"/></g></svg>