<svg xmlns="http://www.w3.org/2000/svg" xmlns:xlink="http://www.w3.org/1999/xlink" width="425" zoomAndPan="magnify" viewBox="0 0 318.75 60" height="80" preserveAspectRatio="xMidYMid meet" version="1.0"><defs><clipPath id="7da337dc7e"><path d="M 0 0.0234375 L 318.5 0.0234375 L 318.5 59.976562 L 0 59.976562 Z M 0 0.0234375 " clip-rule="nonzero"/></clipPath><clipPath id="c7868dd984"><path d="M 141.714844 18.300781 L 176.9375 18.300781 L 176.9375 41.53125 L 141.714844 41.53125 Z M 141.714844 18.300781 " clip-rule="nonzero"/></clipPath></defs><g clip-path="url(#7da337dc7e)"><path fill="#ffffff" d="M 0 0.0234375 L 318.5 0.0234375 L 318.5 59.976562 L 0 59.976562 Z M 0 0.0234375 " fill-opacity="1" fill-rule="nonzero"/><path fill="#000000" d="M 0 0.0234375 L 318.5 0.0234375 L 318.5 59.976562 L 0 59.976562 Z M 0 0.0234375 " fill-opacity="1" fill-rule="nonzero"/></g><g clip-path="url(#c7868dd984)"><path fill="#ffffff" d="M 141.785156 33.546875 L 141.785156 40.53125 C 141.785156 41.175781 142.308594 41.695312 142.949219 41.695312 L 175.542969 41.695312 C 176.183594 41.695312 176.703125 41.175781 176.703125 40.53125 L 176.703125 33.546875 C 176.703125 32.90625 176.183594 32.382812 175.542969 32.382812 C 174.898438 32.382812 174.378906 32.90625 174.378906 33.546875 L 174.378906 39.367188 C 174.378906 39.367188 144.113281 39.367188 144.113281 39.367188 C 144.113281 39.367188 144.113281 33.546875 144.113281 33.546875 C 144.113281 32.90625 143.59375 32.382812 142.949219 32.382812 C 142.308594 32.382812 141.785156 32.90625 141.785156 33.546875 Z M 158.082031 22.238281 L 158.082031 33.546875 C 158.082031 34.191406 158.601562 34.710938 159.246094 34.710938 C 159.886719 34.710938 160.410156 34.191406 160.410156 33.546875 L 160.410156 22.238281 L 161.949219 23.660156 C 162.417969 24.09375 163.15625 24.066406 163.59375 23.59375 C 164.027344 23.121094 164 22.382812 163.527344 21.949219 L 160.035156 18.726562 C 159.589844 18.3125 158.902344 18.3125 158.457031 18.726562 L 154.964844 21.949219 C 154.492188 22.382812 154.460938 23.121094 154.898438 23.59375 C 155.335938 24.066406 156.070312 24.09375 156.542969 23.660156 Z M 158.082031 22.238281 " fill-opacity="1" fill-rule="evenodd"/></g></svg>