<svg xmlns="http://www.w3.org/2000/svg" xmlns:xlink="http://www.w3.org/1999/xlink" width="215" zoomAndPan="magnify" viewBox="0 0 161.25 74.999997" height="100" preserveAspectRatio="xMidYMid meet" version="1.0"><defs><clipPath id="20649bb00f"><path d="M 0 0.171875 L 160.503906 0.171875 L 160.503906 74.824219 L 0 74.824219 Z M 0 0.171875 " clip-rule="nonzero"/></clipPath><clipPath id="b94f4f04d5"><path d="M 66.277344 28.175781 L 93.898438 28.175781 L 93.898438 46.839844 L 66.277344 46.839844 Z M 66.277344 28.175781 " clip-rule="nonzero"/></clipPath></defs><g clip-path="url(#20649bb00f)"><path fill="#ffffff" d="M 0 0.171875 L 160.503906 0.171875 L 160.503906 74.828125 L 0 74.828125 Z M 0 0.171875 " fill-opacity="1" fill-rule="nonzero"/><path fill="#000000" d="M 0 0.171875 L 160.503906 0.171875 L 160.503906 74.828125 L 0 74.828125 Z M 0 0.171875 " fill-opacity="1" fill-rule="nonzero"/></g><g clip-path="url(#b94f4f04d5)"><path fill="#ffffff" d="M 66.339844 40.324219 L 66.339844 45.886719 C 66.339844 46.398438 66.757812 46.816406 67.269531 46.816406 L 93.234375 46.816406 C 93.746094 46.816406 94.160156 46.398438 94.160156 45.886719 L 94.160156 40.324219 C 94.160156 39.8125 93.746094 39.394531 93.234375 39.394531 C 92.722656 39.394531 92.308594 39.8125 92.308594 40.324219 L 92.308594 44.960938 C 92.308594 44.960938 68.195312 44.960938 68.195312 44.960938 C 68.195312 44.960938 68.195312 40.324219 68.195312 40.324219 C 68.195312 39.8125 67.78125 39.394531 67.269531 39.394531 C 66.757812 39.394531 66.339844 39.8125 66.339844 40.324219 Z M 79.324219 31.3125 L 79.324219 40.324219 C 79.324219 40.835938 79.738281 41.25 80.25 41.25 C 80.761719 41.25 81.179688 40.835938 81.179688 40.324219 L 81.179688 31.3125 L 82.40625 32.445312 C 82.78125 32.792969 83.367188 32.769531 83.714844 32.394531 C 84.0625 32.015625 84.039062 31.429688 83.660156 31.082031 L 80.878906 28.511719 C 80.523438 28.1875 79.976562 28.1875 79.621094 28.511719 L 76.839844 31.082031 C 76.464844 31.429688 76.441406 32.015625 76.789062 32.394531 C 77.136719 32.769531 77.722656 32.792969 78.097656 32.445312 Z M 79.324219 31.3125 " fill-opacity="1" fill-rule="evenodd"/></g></svg>